<svg width="500" height="500" viewBox="150 80 420 480" role="img" xmlns="http://www.w3.org/2000/svg">
  <title>단아(Danha) 로고 — 개나리꽃</title>
  <desc>비대칭 개나리꽃 네 장 꽃잎</desc>
  <rect x="150" y="80" width="420" height="480" fill="white"/>

  <path fill="#FFD700" stroke="#C8A000" stroke-width="2"
    d="M330 315 C310 285, 265 235, 245 175 C232 135, 248 105, 262 98 C272 93, 285 100, 295 118 C315 152, 320 210, 330 315 Z"/>
  <path fill="#FFE030" stroke="#C8A000" stroke-width="2"
    d="M348 325 C375 300, 430 270, 490 268 C528 267, 548 283, 552 298 C555 310, 548 328, 530 338 C498 354, 440 345, 348 325 Z"/>
  <path fill="#FFCF00" stroke="#C8A000" stroke-width="2"
    d="M328 348 C308 375, 272 418, 248 465 C230 500, 235 528, 248 538 C258 546, 275 542, 290 528 C318 502, 332 455, 328 348 Z"/>
  <path fill="#FFD820" stroke="#C8A000" stroke-width="2"
    d="M352 350 C372 378, 405 415, 428 448 C445 472, 442 495, 430 504 C420 511, 405 508, 392 494 C368 465, 352 410, 352 350 Z"/>
</svg>
